<?xml version="1.0" standalone="no"?>
<!DOCTYPE svg PUBLIC "-//W3C//DTD SVG 1.1//EN" "http://www.w3.org/Graphics/SVG/1.1/DTD/svg11.dtd" >
<svg xmlns="http://www.w3.org/2000/svg" xmlns:xlink="http://www.w3.org/1999/xlink" version="1.1">
<metadata></metadata>
<defs>
<font id="brauhausbold" horiz-adv-x="868" >
<font-face units-per-em="2048" ascent="1638" descent="-410" />
<missing-glyph horiz-adv-x="573" />
<glyph horiz-adv-x="0" />
<glyph unicode="&#xd;" horiz-adv-x="573" />
<glyph unicode=" "  horiz-adv-x="573" />
<glyph unicode="&#x09;" horiz-adv-x="573" />
<glyph unicode="&#xa0;" horiz-adv-x="573" />
<glyph unicode="!" horiz-adv-x="561" d="M102 2l166 166l166 -166l-166 -166zM147 379v1034l246 246v-1034z" />
<glyph unicode="&#x22;" horiz-adv-x="786" d="M102 1513l125 125l125 -125l-82 -530l-43 -41l-43 41zM434 1513l125 125l125 -125l-82 -530l-43 -41l-43 41z" />
<glyph unicode="#" horiz-adv-x="1370" d="M82 440l18 138h244l57 401h-243l18 137h244l65 461h158l-63 -461h305l65 461h158l-64 -461h244l-20 -137h-244l-55 -401h243l-20 -138h-244l-63 -460h-160l66 460h-308l-63 -460h-160l66 460h-244zM504 578h305l57 401h-307z" />
<glyph unicode="$" horiz-adv-x="879" d="M20 201l207 205l303 -302v336l-489 488v319l381 381v139h61v-139l293 -293l-207 -207l-262 263v-316l490 -487v-340l-381 -381v-139h-62v139z" />
<glyph unicode="%" horiz-adv-x="1391" d="M68 162l1214 1212l41 -41l-1214 -1212zM102 987v281l392 391l290 -289v-280l-391 -392zM348 1112l191 -186v319l-191 187v-320zM616 125v281l392 391l290 -289v-281l-391 -391zM862 250l191 -187v320l-191 186v-319z" />
<glyph unicode="&#x26;" horiz-adv-x="1288" d="M102 958v207l494 494l352 -350v-187l-246 -245v307l-247 252l-107 -107v-246l981 -981l-184 -184l-281 281l-364 -365l-394 393v197l267 266zM352 354l293 -293l178 179l-409 409l-62 -61v-234z" />
<glyph unicode="'" horiz-adv-x="455" d="M102 1513l125 125l125 -125l-82 -530l-43 -41l-43 41z" />
<glyph unicode="(" horiz-adv-x="723" d="M123 616q0 135 23 250.5t61 212.5t86 176.5t99 141.5q119 146 270 241l40 -41q-87 -59 -155 -186q-29 -54 -56.5 -128t-49.5 -171.5t-35 -220.5t-13 -275q0 -155 13 -280t35 -223t49.5 -172t56.5 -128q68 -126 155 -182l-40 -41q-151 85 -270 228q-51 61 -99 139.5 t-86 177.5t-61 218.5t-23 262.5z" />
<glyph unicode=")" horiz-adv-x="723" d="M20 -369q86 56 155 182q29 54 57 128t49.5 172t35 223t13.5 280q0 152 -13.5 275t-35 220.5t-49.5 171.5t-57 128q-69 127 -155 186l41 41q150 -95 269 -241q51 -62 99.5 -141.5t86.5 -176.5t61 -212.5t23 -250.5q0 -143 -23 -262.5t-61 -218.5t-86.5 -177.5 t-99.5 -139.5q-119 -143 -269 -228z" />
<glyph unicode="*" horiz-adv-x="1257" d="M90 733l57 215l381 96l-381 97l-57 215l215 57l273 -280l-105 378l156 156l157 -156l-106 -378l274 280l215 -57l-57 -215l-381 -97l381 -96l57 -215l-215 -57l-274 280l106 -376l-157 -158l-156 158l105 376l-273 -280z" />
<glyph unicode="+" horiz-adv-x="1223" d="M61 575v195h453v473h195v-473h452v-195h-452v-473h-195v473h-453z" />
<glyph unicode="," horiz-adv-x="496" d="M76 -281q59 0 110.5 23t89.5 63l-194 195l166 166l166 -166q0 -71 -26.5 -132.5t-72.5 -107t-107.5 -72t-131.5 -26.5v57z" />
<glyph unicode="-" horiz-adv-x="711" d="M102 725v195h506v-195h-506z" />
<glyph unicode="." horiz-adv-x="496" d="M82 0l166 166l166 -166l-166 -166z" />
<glyph unicode="/" horiz-adv-x="633" d="M20 -143l476 1781h116l-475 -1781h-117z" />
<glyph unicode="0" horiz-adv-x="1010" d="M102 184v1022l453 453l352 -350v-1022l-452 -453zM358 319l252 -247l41 41v1061l-252 247l-41 -41v-1061z" />
<glyph unicode="1" horiz-adv-x="543" d="M143 -164v1567l256 256v-1567z" />
<glyph unicode="2" horiz-adv-x="997" d="M86 821v357l481 481l324 -324v-374l-533 -533v-260h453l145 -145l-196 -197l-86 86h-572v342l543 541v397l-231 231l-72 -71v-275z" />
<glyph unicode="3" horiz-adv-x="995" d="M74 186v150l256 256v-270l252 -248l61 61v469l-375 371l385 385h-579l258 256h661l-487 -486l393 -391v-430l-473 -473z" />
<glyph unicode="4" horiz-adv-x="1038" d="M82 498v420l256 256v-482h252v731l235 236v-967h234l-195 -194h-39v-406l-235 -235v641h-508z" />
<glyph unicode="5" horiz-adv-x="1022" d="M102 166v194l256 256v-315l232 -227l61 61v527l-190 186h-359v770h734l63 63l41 -41l-291 -288h-454v-246h401l311 -309v-488l-473 -473z" />
<glyph unicode="6" horiz-adv-x="1018" d="M102 184v723l752 752l41 -41l-299 -299l311 -309v-723l-452 -453zM358 319l252 -247l41 41v761l-252 248l-41 -41v-762z" />
<glyph unicode="7" horiz-adv-x="981" d="M0 1362l256 256h684v-221l-403 -404v-901l-256 -256v983l413 412v131h-694z" />
<glyph unicode="8" horiz-adv-x="1014" d="M102 958v248l453 453l352 -350v-166l-307 -307l311 -310v-239l-452 -453l-353 350v240l267 266zM348 1083l211 -206l103 102v205l-252 248l-62 -62v-287zM352 309l252 -248l62 62v278l-252 248l-62 -61v-279z" />
<glyph unicode="9" horiz-adv-x="1018" d="M102 463v723l453 452l352 -350v-723l-751 -751l-41 41l299 299zM358 598l252 -248l41 41v762l-252 248l-41 -41v-762z" />
<glyph unicode=":" horiz-adv-x="496" d="M82 0l166 166l166 -166l-166 -166zM82 954l166 166l166 -166l-166 -166z" />
<glyph unicode=";" horiz-adv-x="496" d="M76 -281q59 0 110.5 23t89.5 63l-194 195l166 166l166 -166q0 -71 -26.5 -132.5t-72.5 -107t-107.5 -72t-131.5 -26.5v57zM82 954l166 166l166 -166l-166 -166z" />
<glyph unicode="&#x3c;" horiz-adv-x="1016" d="M123 668l661 661l150 -149l-512 -512l512 -512l-150 -150z" />
<glyph unicode="=" horiz-adv-x="1141" d="M102 354v195h936v-195h-936zM102 770v195h936v-195h-936z" />
<glyph unicode="&#x3e;" horiz-adv-x="1016" d="M82 156l512 512l-512 512l149 149l662 -661l-662 -662z" />
<glyph unicode="?" horiz-adv-x="956" d="M115 1266l393 393l385 -385l2 2v-2h-2l-367 -367v-272l-256 -256v395l367 367l-262 262l-199 -199zM227 0l166 166l166 -166l-166 -166z" />
<glyph unicode="@" horiz-adv-x="1876" d="M102 440q-1 110 13 209q16 112 55.5 224t100 215t142 192t180.5 154.5t215 103t247 37.5q114 0 215.5 -29.5t185.5 -82.5t149 -128.5t106 -166.5t55.5 -196.5t-1.5 -219.5q-19 -137 -79 -262.5t-149.5 -230t-204 -182t-242.5 -118.5l-152 176l-178 -155l-250 288l76 545 l446 391l250 -289l-90 -641l43 -49q153 90 246.5 222t117.5 313q13 95 1.5 182.5t-45.5 164t-87.5 139.5t-123 108t-153.5 69.5t-179 24.5q-100 0 -194 -29.5t-177.5 -83t-155 -128t-126.5 -163t-92 -189t-52 -206.5q-18 -126 -11.5 -243t39.5 -220t93.5 -188t150.5 -146 t211 -94.5t275 -33.5l-45 -46q-194 0 -333.5 44.5t-234.5 119.5t-150.5 173.5t-81 206.5t-26.5 218zM772 393l164 -186l82 584l-164 186z" />
<glyph unicode="A" horiz-adv-x="1055" d="M102 -20v1226l453 453l352 -350v-1203l86 -86l-186 -186l-166 166v596h-272v-510l65 -66l-186 -186zM369 678h272v123h-272v-123zM369 883h272v280l-252 248l-20 -20v-508z" />
<glyph unicode="B" horiz-adv-x="1010" d="M102 -141v1534l267 266v-207l206 207l353 -350v-119l-219 -219l219 -221v-420l-494 -494l-176 178zM369 315l231 -231l62 61v459l-160 160l-133 -133v-316zM369 713l293 293v157l-252 248l-41 -41v-657z" />
<glyph unicode="C" horiz-adv-x="969" d="M102 188v996l476 475l350 -350l-207 -207l-309 309l-43 -43v-1032l252 -252l266 266l41 -41l-473 -473z" />
<glyph unicode="D" horiz-adv-x="1030" d="M102 -98v1491l267 266v-207l206 207l353 -350v-934l-473 -473h-353zM369 170h272l21 20v973l-252 248l-41 -41v-1200z" />
<glyph unicode="E" horiz-adv-x="989" d="M102 -78v1471l267 266v-209l209 209l350 -350l-207 -207l-309 309l-43 -43v-508h520l-266 -266h-254v-406h393l145 -145l-207 -207l-86 86h-512z" />
<glyph unicode="F" horiz-adv-x="907" d="M102 -20v1413l267 266v-209l209 209l350 -350l-207 -207l-309 309l-43 -43v-508h520l-266 -266h-254v-467l86 -86l-207 -205z" />
<glyph unicode="G" horiz-adv-x="1030" d="M102 188v996l476 475l350 -350l-207 -207l-309 309l-43 -43v-1032l252 -252l41 41v481h-263l267 266h262v-1036l-266 -266v473l-207 -207z" />
<glyph unicode="H" horiz-adv-x="1139" d="M61 1452l207 207l146 -146v-614h311v467l-86 86l207 207l145 -146v-1386l86 -86l-207 -205l-145 144v632h-311v-485l86 -86l-207 -205l-146 144v1386zM414 694h311v123h-311v-123z" />
<glyph unicode="I" horiz-adv-x="623" d="M82 1452l207 207l145 -146v-1386l86 -86l-207 -205l-145 144v1386z" />
<glyph unicode="J" horiz-adv-x="928" d="M41 -121v285l266 266v-405l211 -207l41 41v1509l-86 84l207 207l145 -146v-1470l-473 -473z" />
<glyph unicode="K" horiz-adv-x="1126" d="M61 1452l207 207l146 -146v-776l295 295v336l-86 84l206 207l146 -146v-296l-307 -308l311 -309v-473l86 -84l-207 -207l-145 146v473l-252 247l-47 -47v-528l86 -86l-207 -205l-146 144v1386z" />
<glyph unicode="L" horiz-adv-x="870" d="M61 1452l207 207l146 -146v-1325h352l145 -145l-206 -207l-87 86h-471v1446z" />
<glyph unicode="M" horiz-adv-x="1571" d="M41 1411l207 207l184 -182l223 223l250 -248l248 248l291 -289v-1245l86 -84l-207 -207l-145 146v1245l-191 186l-41 -41v-1243l86 -84l-207 -207l-145 146v1243l-191 186l-40 -41v-1245l86 -84l-207 -207l-146 146v1292z" />
<glyph unicode="N" horiz-adv-x="1155" d="M41 1411l207 207l184 -182l223 223l353 -350v-1184l86 -84l-207 -207l-146 146v1183l-252 248l-40 -41v-1245l86 -84l-207 -207l-146 146v1292z" />
<glyph unicode="O" horiz-adv-x="1010" d="M102 184v1022l453 453l352 -350v-1022l-452 -453zM369 1391l2 -1059l250 -250l20 20v1061l-250 250z" />
<glyph unicode="P" horiz-adv-x="989" d="M102 -20v1413l267 266v-207l206 207l353 -350v-420l-473 -473h-86v-289l86 -86l-207 -205zM369 684h272l21 21v458l-252 248l-41 -41v-686z" />
<glyph unicode="Q" horiz-adv-x="1030" d="M102 164v1022l473 473l353 -350v-1022l-266 -267l245 -245l-207 -205zM369 309l252 -248l41 41v1061l-252 248l-41 -41v-1061z" />
<glyph unicode="R" horiz-adv-x="1055" d="M102 -20v1413l267 266v-207l206 207l353 -350v-195l-219 -219l219 -221v-547l86 -86l-205 -205l-147 148v544l-160 160l-133 -133v-428l86 -86l-207 -205zM369 637l293 293v233l-252 248l-41 -41v-733z" />
<glyph unicode="S" horiz-adv-x="858" d="M20 201l207 205l303 -302v336l-489 488v319l412 412l323 -324l-207 -207l-262 263v-316l490 -487v-340l-412 -412z" />
<glyph unicode="T" horiz-adv-x="872" d="M-20 1327l290 289h600l64 63l41 -41l-291 -288h-600l-64 -64zM293 -20v1093l266 266v-1212l86 -86l-207 -205z" />
<glyph unicode="U" horiz-adv-x="1135" d="M41 1452l207 207l145 -146v-1181l252 -248l41 41v1243l-86 84l207 207l145 -146v-1290l142 -139l-207 -207l-182 184l-226 -225l-352 350v1182z" />
<glyph unicode="V" horiz-adv-x="1055" d="M61 1452l207 207l146 -146v-1202l231 -227l41 41v1243l-86 84l207 207l145 -146v-1204l-473 -473l-332 330v1202z" />
<glyph unicode="W" horiz-adv-x="1573" d="M61 1452l207 207l146 -146v-1204l231 -227l41 41v1245l-86 84l207 207l145 -146v-1204l232 -227l20 20v1266l-86 84l207 207l145 -146v-1226l-452 -453l-270 268l-269 -268l-332 330v1204z" />
<glyph unicode="X" horiz-adv-x="1165" d="M61 1452l207 207l146 -146v-417l252 -248l82 82v438l-86 84l206 207l146 -146v-399l-307 -307l311 -309v-371l86 -84l-207 -207l-145 146v370l-252 248l-82 -82v-391l86 -84l-207 -207l-145 146v352l307 307l-312 309v418z" />
<glyph unicode="Y" horiz-adv-x="1010" d="M37 1452l207 207l145 -146v-829l232 -229l20 20v893l-86 84l207 207l145 -146v-1554l-393 -389l-287 287q-50 50 -75 112.5t-25 127t25 127t75 112.5q13 12 26.5 23t27.5 20l-158 158v831zM186 96q0 -54 20.5 -106t61.5 -92l103 -101l270 269v327l-186 -186l-131 131 q-16 -9 -29.5 -20t-26.5 -23q-41 -41 -61.5 -93t-20.5 -106z" />
<glyph unicode="Z" horiz-adv-x="995" d="M41 1327l291 289h559l63 63l41 -41l-530 -528l434 -432v-635l-473 -473l-352 350v150l266 266v-270l252 -248l41 41v673l-416 412l406 406h-478l-63 -64z" />
<glyph unicode="[" horiz-adv-x="696" d="M143 -410v2048h451v-82h-205v-1884h205v-82h-451z" />
<glyph unicode="\" horiz-adv-x="633" d="M20 1638h117l475 -1781h-116z" />
<glyph unicode="]" horiz-adv-x="717" d="M123 -328h205v1884h-205v82h450v-2048h-450v82z" />
<glyph unicode="^" horiz-adv-x="1241" d="M102 705l519 518l518 -518l-150 -150l-368 369l-369 -369z" />
<glyph unicode="_" horiz-adv-x="1458" d="M0 -256h1458v-154h-1458v154z" />
<glyph unicode="`" d="M362 1497l82 82l230 -231l-82 -82z" />
<glyph unicode="a" d="M61 125v108l246 246v-229l191 -189v441q-40 -18 -84 -24q-20 -3 -39 -3q-23 0 -47 4q-42 7 -81.5 27t-72.5 53q-42 42 -63.5 95t-21.5 108t21.5 108t63.5 95l279 278l290 -291v-848l84 -81l-186 -187l-143 144l-146 -146zM149 762q0 -44 16.5 -86.5t49.5 -75.5 q28 -29 63 -45q36 -17 74 -21q14 -2 27 -1q25 0 49 5q38 8 70 29v262l-189 189l-94 -94q-33 -33 -49.5 -75.5t-16.5 -86.5z" />
<glyph unicode="b" horiz-adv-x="911" d="M41 1473l186 186l146 -146v-415l145 145l291 -291v-727l-391 -391l-291 289v1263zM373 248l188 -189l2 2v768l-190 187v-768z" />
<glyph unicode="c" horiz-adv-x="823" d="M102 147v705l392 391l288 -289l-186 -186l-248 248v-744l209 -209l184 183l41 -41l-368 -369z" />
<glyph unicode="d" horiz-adv-x="887" d="M-20 1384l186 187l618 -617v-729l-391 -391l-291 289v729l205 205zM348 248l191 -187v768l-191 187v-768z" />
<glyph unicode="e" horiz-adv-x="823" d="M102 147v705l392 391l288 -291l-434 -434v-244l211 -211l182 183l41 -41l-368 -369zM348 600l209 209l-209 207v-416z" />
<glyph unicode="f" horiz-adv-x="659" d="M-20 1018l204 205v190l391 391l146 -145l-186 -184l-105 102v-354h266l-204 -205h-62v-912l86 -86l-186 -184l-146 144v1038h-204z" />
<glyph unicode="g" horiz-adv-x="887" d="M102 410v442l392 391l290 -289v-1056l-331 -328l-246 246q-42 42 -63.5 95t-21.5 107.5t21.5 107.5t63.5 95q11 11 23 20.5t24 18.5zM181 18.5q0 -44.5 16.5 -86.5t50.5 -75l82 -80l209 207v241l-125 -125l-117 117q-14 -8 -26 -17t-23 -20q-33 -33 -50 -75t-17 -86.5z M348 537l191 -189v481l-191 187v-479z" />
<glyph unicode="h" horiz-adv-x="934" d="M41 1473l186 186l166 -166v-416l166 166l248 -248v-889l86 -86l-186 -184l-146 144v890l-147 146l-21 -21v-889l86 -86l-186 -184l-146 144v1388z" />
<glyph unicode="i" horiz-adv-x="520" d="M41 1057l186 186l166 -166v-971l86 -86l-186 -184l-146 144v970zM106 1473l166 165l166 -165l-166 -166z" />
<glyph unicode="j" horiz-adv-x="500" d="M41 -369l106 107v1214l-106 105l186 186l166 -166v-1179l-311 -308zM106 1473l166 165l166 -165l-166 -166z" />
<glyph unicode="k" horiz-adv-x="989" d="M41 1473l186 186l166 -166v-469l219 219l283 -282l-221 -222l188 -188v-449l86 -86l-184 -184l-148 148v446l-129 127l-94 -94v-353l86 -86l-184 -184l-148 148v1382zM393 541l275 274l-201 201l-74 -74v-401z" />
<glyph unicode="l" horiz-adv-x="520" d="M41 1473l186 186l166 -166v-1387l86 -86l-186 -184l-146 144v1388z" />
<glyph unicode="m" horiz-adv-x="1348" d="M41 1057l186 186l166 -166l166 166l207 -207l207 207l248 -248v-889l86 -86l-187 -184l-145 144v890l-148 146l-20 -21v-889l86 -86l-186 -184l-146 144v890l-147 146l-21 -21v-889l86 -86l-186 -184l-146 144v972z" />
<glyph unicode="n" horiz-adv-x="934" d="M41 1057l186 186l166 -166l166 166l248 -248v-889l86 -86l-186 -184l-146 144v890l-147 146l-21 -21v-889l86 -86l-186 -184l-146 144v972z" />
<glyph unicode="o" horiz-adv-x="887" d="M102 123v729l392 391l290 -289v-729l-391 -391zM348 248l191 -187v768l-191 187v-768z" />
<glyph unicode="p" horiz-adv-x="909" d="M41 1057l186 186l166 -166l166 166l248 -248v-708l-371 -371h-43v-76l86 -86l-186 -184l-146 143v1239zM393 123h168v747l-147 146l-21 -21v-872z" />
<glyph unicode="q" horiz-adv-x="891" d="M102 123v729l392 391l290 -289v-1114l86 -86l-186 -184l-145 143v267l-146 -146zM348 248l191 -187v768l-191 187v-768z" />
<glyph unicode="r" horiz-adv-x="745" d="M41 1057l186 186l166 -166l166 166l227 -227l-186 -187l-186 187l-21 -21v-889l86 -86l-186 -184l-146 144v972z" />
<glyph unicode="s" horiz-adv-x="694" d="M41 35l186 184l160 -158v252l-326 324v215l392 391l200 -201l-186 -184l-160 158v-252l326 -324v-215l-391 -391z" />
<glyph unicode="t" horiz-adv-x="655" d="M-20 997l450 451v-225h287l-225 -226h-62v-868l66 -66l100 101l41 -41l-287 -287l-166 166v995h-204z" />
<glyph unicode="u" horiz-adv-x="934" d="M41 1059l186 184l146 -143v-891l147 -146l21 21v889l-86 86l186 184l145 -143v-973l107 -104l-186 -187l-166 166l-166 -166l-248 248v889z" />
<glyph unicode="v" horiz-adv-x="911" d="M41 1057l186 186l146 -145v-850l190 -187v910l-86 86l187 186l145 -145v-873l-391 -391l-291 289v848z" />
<glyph unicode="w" horiz-adv-x="1348" d="M41 1057l186 186l146 -145v-850l190 -187v910l-86 86l187 186l145 -145v-850l190 -187v910l-86 86l187 186l145 -145v-873l-391 -391l-219 217l-217 -217l-291 289v848z" />
<glyph unicode="x" horiz-adv-x="981" d="M41 1057l186 186l146 -145v-260l190 -187l41 41v281l-86 84l187 186l145 -145v-242l-246 -246l250 -248v-258l86 -84l-186 -186l-146 146v258l-190 186l-41 -41v-279l86 -84l-187 -186l-145 146v239l246 246l-250 248v260z" />
<glyph unicode="y" horiz-adv-x="911" d="M41 1057l186 186l146 -145v-561l190 -189v625l-86 84l187 186l145 -145v-1200l-332 -328l-246 246q-42 42 -63 95t-21 107.5t21 107.5t63 95q11 11 23 20.5t25 18.5l-152 150v563zM205 18.5q0 -44.5 16.5 -86.5t50.5 -75l82 -80l209 207v241l-125 -125l-116 117 q-27 -14 -50 -37q-33 -33 -50 -75t-17 -86.5z" />
<glyph unicode="z" horiz-adv-x="784" d="M41 -14l225 225v-250l191 -186v438l-258 256l288 289l-258 258l-147 -148l-41 41l334 334l340 -340l-289 -289l276 -276v-399l-370 -371l-291 289v129z" />
<glyph unicode="{" horiz-adv-x="743" d="M0 614l211 211v572q0 47 18 90.5t51.5 77t80.5 53.5t106 20h174v-82h-92q-51 0 -71.5 -30.5t-20.5 -87.5v-482l-342 -342l342 -342v-481q0 -57 20.5 -88t71.5 -31h92v-82h-174q-59 0 -106 20t-80.5 54t-51.5 77.5t-18 90.5v571z" />
<glyph unicode="|" horiz-adv-x="492" d="M164 -410v2048h164v-2048h-164z" />
<glyph unicode="}" horiz-adv-x="743" d="M102 -328h93q51 0 71.5 31t20.5 88v481l342 342l-342 342v482q0 57 -20.5 87.5t-71.5 30.5h-93v82h174q58 0 105.5 -20t81 -53.5t51.5 -77t18 -90.5v-572l211 -211l-211 -211v-571q0 -47 -18 -90.5t-51.5 -77.5t-81 -54t-105.5 -20h-174v82z" />
<glyph unicode="~" horiz-adv-x="971" d="M82 547l352 352l248 -248l166 166l41 -41l-352 -352l-248 248l-166 -166z" />
<glyph unicode="&#xa1;" horiz-adv-x="561" d="M102 1077l166 166l166 -166l-166 -166zM143 455l246 245v-1034l-246 -246v1035z" />
<glyph unicode="&#xa2;" horiz-adv-x="823" d="M102 322v704l357 356v195h61v-186l262 -263l-184 -184l-248 248l-2 -2v-744l209 -208l184 182l41 -41l-338 -338v-166h-61v166z" />
<glyph unicode="&#xa3;" horiz-adv-x="1053" d="M31 635l153 153h90v416l455 455l289 -289l-187 -186l-247 248l-64 -64v-580h377l-154 -153h-223v-244l-233 -233h620l146 -146l-187 -186l-86 86h-739v82l233 231v410h-243z" />
<glyph unicode="&#xa4;" horiz-adv-x="969" d="M-51 481l153 154v143h-153l153 154v252l476 475l350 -350l-207 -207l-309 309l-43 -43v-436h456l-153 -154h-303v-143h252l-154 -154h-98v-145l252 -252l266 266l41 -41l-473 -473l-353 352v293h-153z" />
<glyph unicode="&#xa5;" horiz-adv-x="1065" d="M82 1042v371l246 246v-449l286 -286l123 123v366l246 246v-449l-328 -327v-205h291l-153 -154h-138v-139h291l-153 -154h-138v-129l-266 -266v395h-289l154 154h135v139h-289l154 154h135v57z" />
<glyph unicode="&#xa6;" horiz-adv-x="492" d="M164 -410v922h164v-922h-164zM164 717v921h164v-921h-164z" />
<glyph unicode="&#xa7;" horiz-adv-x="899" d="M82 -86l207 207l282 -283v234l-489 487v74l225 225v-213l510 -508v-135l-411 -412zM82 1112v135l412 412l323 -324l-207 -207l-282 283v-233l489 -488v-74l-225 -225v213z" />
<glyph unicode="&#xa8;" d="M152 1432l145 145l145 -145l-145 -144zM463 1432l145 145l146 -145l-146 -144z" />
<glyph unicode="&#xa9;" horiz-adv-x="2048" d="M176 748q0 123 32 236.5t90 212.5t139 180t180 139t213 90t237 32t237 -32t213 -90t180 -139t139 -180t90 -212.5t32 -236.5t-32 -237t-90 -213t-139 -180t-180 -139t-213 -90t-237 -32t-237 32t-213 90t-180 139t-139 180t-90 213t-32 237zM281 748q0 -111 28 -214 t79.5 -192.5t123 -163t159 -126t188 -81t208.5 -28.5t208.5 28.5t188 81t159 126t123 163t79.5 192.5t28 214t-28 213.5t-79 192t-123 163t-159.5 126t-188 81t-208.5 28.5q-109 0 -209 -28.5t-187.5 -81t-159 -126t-123 -163t-79.5 -192t-28 -213.5zM672 414v565l434 434 l352 -350l-166 -166l-309 309l-86 -84v-602l252 -252l266 267l41 -41l-430 -433z" />
<glyph unicode="&#xaa;" d="M61 0h766v-102h-766v102zM61 520v109l246 245v-229l191 -188v440q-40 -18 -83.5 -24t-86 1t-82 27t-72.5 53q-42 42 -63.5 95t-21.5 108t21.5 108t63.5 95l279 278l290 -290v-848l84 -82l-186 -187l-143 144l-146 -146zM149 1157q0 -44 16.5 -86.5t49.5 -75.5 q28 -28 63.5 -44.5t73.5 -20.5t75.5 4t70.5 29v262l-189 188l-94 -94q-33 -33 -49.5 -75.5t-16.5 -86.5z" />
<glyph unicode="&#xab;" horiz-adv-x="1192" d="M123 586l457 456l47 -47l-267 -409l267 -410l-47 -47zM565 586l457 456l47 -47l-266 -409l266 -410l-47 -47z" />
<glyph unicode="&#xac;" horiz-adv-x="573" />
<glyph unicode="&#xad;" horiz-adv-x="711" d="M102 725v195h506v-195h-506z" />
<glyph unicode="&#xae;" horiz-adv-x="2048" d="M176 748q0 123 32 236.5t90 212.5t139 180t180 139t213 90t237 32t237 -32t213 -90t180 -139t139 -180t90 -212.5t32 -236.5t-32 -237t-90 -213t-139 -180t-180 -139t-213 -90t-237 -32t-237 32t-213 90t-180 139t-139 180t-90 213t-32 237zM281 748q0 -111 28 -214 t79.5 -192.5t123 -163t159 -126t188 -81t208.5 -28.5t208.5 28.5t188 81t159 126t123 163t79.5 192.5t28 214t-28 213.5t-79 192t-123 163t-159.5 126t-188 81t-208.5 28.5q-109 0 -209 -28.5t-187.5 -81t-159 -126t-123 -163t-79.5 -192t-28 -213.5zM649 246v942l225 225 v-207l207 207l355 -350v-51l-222 -219l220 -222v-219l86 -86l-162 -164l-148 148v217l-159 160l-177 -174v-101l89 -86l-166 -164zM874 535l334 333l2 90l-252 248l-84 -82v-589z" />
<glyph unicode="&#xaf;" d="M244 1341v119h418v-119h-418z" />
<glyph unicode="&#xb0;" horiz-adv-x="819" d="M123 1352q0 59 22.5 111t61.5 91t91.5 61.5t111.5 22.5t111 -22.5t91 -61.5t61.5 -91t22.5 -111t-22.5 -111.5t-61.5 -91.5t-91 -61.5t-111 -22.5t-111.5 22.5t-91.5 61.5t-61.5 91.5t-22.5 111.5zM250 1352q0 -33 12.5 -62t34.5 -51t51 -34.5t62 -12.5t62 12.5 t50.5 34.5t34 51t12.5 62t-12.5 62t-34 50.5t-50.5 34t-62 12.5t-62 -12.5t-51 -34t-34.5 -50.5t-12.5 -62z" />
<glyph unicode="&#xb1;" horiz-adv-x="1141" d="M102 88v195h936v-195h-936zM102 698v195h371v350h195v-350h370v-195h-370v-282h-195v282h-371z" />
<glyph unicode="&#xb2;" horiz-adv-x="573" />
<glyph unicode="&#xb3;" horiz-adv-x="573" />
<glyph unicode="&#xb4;" d="M242 1348l227 229l82 -82l-227 -229z" />
<glyph unicode="&#xb5;" horiz-adv-x="573" />
<glyph unicode="&#xb6;" horiz-adv-x="1372" d="M164 147v1119l291 290h794v-77h-131v-1545h131v-77h-794zM924 -66h116v1545h-116v-1545z" />
<glyph unicode="&#xb7;" horiz-adv-x="496" d="M82 739l166 166l166 -166l-166 -166z" />
<glyph unicode="&#xb8;" horiz-adv-x="823" d="M326 -350l157 157l-90 91l41 41l193 -193l-199 -199z" />
<glyph unicode="&#xb9;" horiz-adv-x="573" />
<glyph unicode="&#xba;" horiz-adv-x="887" d="M102 0h682v-102h-682v102zM102 518v729l392 391l290 -288v-729l-391 -392zM348 643l191 -186v768l-191 186v-768z" />
<glyph unicode="&#xbb;" horiz-adv-x="1192" d="M123 176l266 410l-266 409l47 47l457 -456l-457 -457zM565 176l266 410l-266 409l47 47l457 -456l-457 -457z" />
<glyph unicode="&#xbc;" horiz-adv-x="573" />
<glyph unicode="&#xbd;" horiz-adv-x="573" />
<glyph unicode="&#xbe;" horiz-adv-x="573" />
<glyph unicode="&#xbf;" horiz-adv-x="956" d="M115 -197h2l366 367v272l256 256v-395l-366 -366l262 -263l199 199l61 -61l-393 -394l-385 385l-2 -2v2zM451 1077l165 166l166 -166l-166 -166z" />
<glyph unicode="&#xc0;" horiz-adv-x="1055" d="M102 -20v1226l453 453l352 -350v-1203l86 -86l-186 -186l-166 166v596h-272v-510l65 -66l-186 -186zM369 678h272v123h-272v-123zM369 883h272v280l-252 248l-20 -20v-508zM407 1909l82 82l230 -231l-82 -82z" />
<glyph unicode="&#xc1;" horiz-adv-x="1055" d="M102 -20v1226l453 453l352 -350v-1203l86 -86l-186 -186l-166 166v596h-272v-510l65 -66l-186 -186zM369 678h272v123h-272v-123zM369 883h272v280l-252 248l-20 -20v-508zM389 1758l227 229l82 -82l-227 -229z" />
<glyph unicode="&#xc2;" horiz-adv-x="1055" d="M102 -20v1226l453 453l352 -350v-1203l86 -86l-186 -186l-166 166v596h-272v-510l65 -66l-186 -186zM321 1739l229 231l230 -231l-82 -82l-148 149l-147 -149zM369 678h272v123h-272v-123zM369 883h272v280l-252 248l-20 -20v-508z" />
<glyph unicode="&#xc3;" horiz-adv-x="1055" d="M102 -20v1226l453 453l352 -350v-1203l86 -86l-186 -186l-166 166v596h-272v-510l65 -66l-186 -186zM301 1757l230 229l186 -186l125 125l41 -41l-229 -229l-187 186l-125 -125zM369 678h272v123h-272v-123zM369 883h272v280l-252 248l-20 -20v-508z" />
<glyph unicode="&#xc4;" horiz-adv-x="1055" d="M102 -20v1226l453 453l352 -350v-1203l86 -86l-186 -186l-166 166v596h-272v-510l65 -66l-186 -186zM256 1823l145 145l145 -145l-145 -144zM369 678h272v123h-272v-123zM369 883h272v280l-252 248l-20 -20v-508zM567 1823l145 145l146 -145l-146 -144z" />
<glyph unicode="&#xc5;" horiz-adv-x="1055" d="M102 -20v1226l453 453l352 -350v-1203l86 -86l-186 -186l-166 166v596h-272v-510l65 -66l-186 -186zM369 678h272v123h-272v-123zM369 883h272v280l-252 248l-20 -20v-508zM375 1763q0 36 13.5 68t37 55.5t55.5 37t68 13.5t67.5 -13.5t55.5 -37t37.5 -55.5t13.5 -68 t-13.5 -67.5t-37.5 -55.5t-55.5 -37.5t-67.5 -13.5t-68 13.5t-55.5 37.5t-37 55.5t-13.5 67.5zM471 1763q0 -32 23 -55t55 -23t54.5 23t22.5 55t-22.5 55t-54.5 23t-55 -23t-23 -55z" />
<glyph unicode="&#xc6;" horiz-adv-x="1528" d="M102 -20v1226l453 453l281 -281l280 281l350 -350l-206 -207l-310 309l-43 -43v-508h520l-266 -266h-254v-406h393l146 -145l-207 -207l-86 86h-512v674h-272v-510l65 -66l-186 -186zM369 678h272v123h-272v-123zM369 883h272v280l-252 248l-20 -20v-508z" />
<glyph unicode="&#xc7;" horiz-adv-x="969" d="M102 188v996l476 475l350 -350l-207 -207l-309 309l-43 -43v-1032l252 -252l266 266l41 -41l-432 -432l151 -151l-198 -199l-103 102l158 158z" />
<glyph unicode="&#xc8;" horiz-adv-x="989" d="M102 -78v1471l267 266v-209l209 209l350 -350l-207 -207l-309 309l-43 -43v-508h520l-266 -266h-254v-406h393l145 -145l-207 -207l-86 86h-512zM407 1909l82 82l230 -231l-82 -82z" />
<glyph unicode="&#xc9;" horiz-adv-x="989" d="M102 -78v1471l267 266v-209l209 209l350 -350l-207 -207l-309 309l-43 -43v-508h520l-266 -266h-254v-406h393l145 -145l-207 -207l-86 86h-512zM422 1737l227 229l82 -82l-227 -229z" />
<glyph unicode="&#xca;" horiz-adv-x="989" d="M102 -78v1471l267 266v-209l209 209l350 -350l-207 -207l-309 309l-43 -43v-508h520l-266 -266h-254v-406h393l145 -145l-207 -207l-86 86h-512zM356 1739l229 231l230 -231l-82 -82l-148 149l-147 -149z" />
<glyph unicode="&#xcb;" horiz-adv-x="989" d="M102 -78v1471l267 266v-209l209 209l350 -350l-207 -207l-309 309l-43 -43v-508h520l-266 -266h-254v-406h393l145 -145l-207 -207l-86 86h-512zM213 1823l145 145l145 -145l-145 -144zM524 1823l145 145l146 -145l-146 -144z" />
<glyph unicode="&#xcc;" horiz-adv-x="623" d="M82 1452l207 207l145 -146v-1386l86 -86l-207 -205l-145 144v1386zM158 1909l82 82l230 -231l-82 -82z" />
<glyph unicode="&#xcd;" horiz-adv-x="623" d="M82 1452l207 207l145 -146v-1386l86 -86l-207 -205l-145 144v1386zM177 1758l227 229l82 -82l-227 -229z" />
<glyph unicode="&#xce;" horiz-adv-x="623" d="M62 1721l229 231l230 -231l-82 -82l-148 149l-147 -149zM82 1452l207 207l145 -146v-1386l86 -86l-207 -205l-145 144v1386z" />
<glyph unicode="&#xcf;" horiz-adv-x="623" d="M-5 1823l145 145l145 -145l-145 -144zM82 1452l207 207l145 -146v-1386l86 -86l-207 -205l-145 144v1386zM306 1823l145 145l146 -145l-146 -144z" />
<glyph unicode="&#xd0;" horiz-adv-x="1030" d="M0 696v62h102v635l267 266v-207l206 207l353 -350v-934l-473 -473h-353v794h-102zM369 170h272l21 20v973l-252 248l-41 -41v-612h139v-62h-139v-526z" />
<glyph unicode="&#xd1;" horiz-adv-x="1155" d="M41 1411l207 207l184 -182l223 223l353 -350v-1184l86 -84l-207 -207l-146 146v1183l-252 248l-40 -41v-1245l86 -84l-207 -207l-146 146v1292zM301 1757l230 229l186 -186l125 125l41 -41l-229 -229l-187 186l-125 -125z" />
<glyph unicode="&#xd2;" horiz-adv-x="1010" d="M102 184v1022l453 453l352 -350v-1022l-452 -453zM369 1391l2 -1059l250 -250l20 20v1061l-250 250zM407 1909l82 82l230 -231l-82 -82z" />
<glyph unicode="&#xd3;" horiz-adv-x="1010" d="M102 184v1022l453 453l352 -350v-1022l-452 -453zM369 1391l2 -1059l250 -250l20 20v1061l-250 250zM396 1758l227 229l82 -82l-227 -229z" />
<glyph unicode="&#xd4;" horiz-adv-x="1010" d="M102 184v1022l453 453l352 -350v-1022l-452 -453zM332 1739l229 231l230 -231l-82 -82l-148 149l-147 -149zM369 1391l2 -1059l250 -250l20 20v1061l-250 250z" />
<glyph unicode="&#xd5;" horiz-adv-x="1010" d="M102 184v1022l453 453l352 -350v-1022l-452 -453zM301 1757l230 229l186 -186l125 125l41 -41l-229 -229l-187 186l-125 -125zM369 1391l2 -1059l250 -250l20 20v1061l-250 250z" />
<glyph unicode="&#xd6;" horiz-adv-x="1010" d="M102 184v1022l453 453l352 -350v-1022l-452 -453zM256 1817l145 145l145 -145l-145 -144zM369 1391l2 -1059l250 -250l20 20v1061l-250 250zM567 1817l145 145l146 -145l-146 -144z" />
<glyph unicode="&#xd7;" horiz-adv-x="1141" d="M92 344l328 328l-328 329l150 150l327 -328l330 328l150 -150l-328 -329l328 -328l-150 -149l-330 327l-327 -327z" />
<glyph unicode="&#xd8;" horiz-adv-x="1112" d="M-72 162l226 225v819l452 453l352 -350v-119l185 184l41 -41l-226 -225v-821l-452 -453l-352 350v121l-185 -184zM410 319l252 -247l40 41v739l-292 -291v-242zM410 643l292 291v240l-251 247l-41 -41v-737z" />
<glyph unicode="&#xd9;" horiz-adv-x="1135" d="M41 1452l207 207l145 -146v-1181l252 -248l41 41v1243l-86 84l207 207l145 -146v-1290l142 -139l-207 -207l-182 184l-226 -225l-352 350v1182zM351 1909l82 82l230 -231l-82 -82z" />
<glyph unicode="&#xda;" horiz-adv-x="1135" d="M41 1452l207 207l145 -146v-1181l252 -248l41 41v1243l-86 84l207 207l145 -146v-1290l142 -139l-207 -207l-182 184l-226 -225l-352 350v1182zM465 1758l227 229l82 -82l-227 -229z" />
<glyph unicode="&#xdb;" horiz-adv-x="1135" d="M41 1452l207 207l145 -146v-1181l252 -248l41 41v1243l-86 84l207 207l145 -146v-1290l142 -139l-207 -207l-182 184l-226 -225l-352 350v1182zM330 1760l229 231l230 -231l-82 -82l-148 149l-147 -149z" />
<glyph unicode="&#xdc;" horiz-adv-x="1135" d="M41 1452l207 207l145 -146v-1181l252 -248l41 41v1243l-86 84l207 207l145 -146v-1290l142 -139l-207 -207l-182 184l-226 -225l-352 350v1182zM224 1801l145 145l145 -145l-145 -144zM535 1801l145 145l146 -145l-146 -144z" />
<glyph unicode="&#xdd;" horiz-adv-x="1010" d="M37 1452l207 207l145 -146v-829l232 -229l20 20v893l-86 84l207 207l145 -146v-1554l-393 -389l-287 287q-50 50 -75 112.5t-25 127t25 127t75 112.5q13 12 26.5 23t27.5 20l-158 158v831zM186 96q0 -54 20.5 -106t61.5 -92l103 -101l270 269v327l-186 -186l-131 131 q-16 -9 -29.5 -20t-26.5 -23q-41 -41 -61.5 -93t-20.5 -106zM449 1733l227 229l82 -82l-227 -229z" />
<glyph unicode="&#xde;" horiz-adv-x="989" d="M102 -20v1392l267 266v-391l206 207l353 -350v-420l-453 -453h-106v-104l86 -86l-207 -205zM369 479h272l21 21v458l-252 248l-41 -41v-686z" />
<glyph unicode="&#xdf;" horiz-adv-x="1112" d="M-20 772l204 205v209l473 473l353 -350v-160l-219 -219l219 -221v-314l-392 -391l-40 41l165 166v352l-200 201l200 201v198l-251 248l-41 -41v-1534l-267 -266v1202h-204z" />
<glyph unicode="&#xe0;" d="M61 125v108l246 246v-229l191 -189v441q-40 -18 -83.5 -24t-86 1t-82 27t-72.5 53q-42 42 -63.5 95t-21.5 108t21.5 108t63.5 95l279 278l290 -291v-848l84 -81l-186 -187l-143 144l-146 -146zM149 762q0 -44 16.5 -86.5t49.5 -75.5q28 -29 63.5 -45t73.5 -20.5t75.5 3.5 t70.5 29v262l-189 189l-94 -94q-33 -33 -49.5 -75.5t-16.5 -86.5zM362 1497l82 82l230 -231l-82 -82z" />
<glyph unicode="&#xe1;" d="M61 125v108l246 246v-229l191 -189v441q-40 -18 -83.5 -24t-86 1t-82 27t-72.5 53q-42 42 -63.5 95t-21.5 108t21.5 108t63.5 95l279 278l290 -291v-848l84 -81l-186 -187l-143 144l-146 -146zM149 762q0 -44 16.5 -86.5t49.5 -75.5q28 -29 63.5 -45t73.5 -20.5t75.5 3.5 t70.5 29v262l-189 189l-94 -94q-33 -33 -49.5 -75.5t-16.5 -86.5zM242 1348l227 229l82 -82l-227 -229z" />
<glyph unicode="&#xe2;" d="M61 125v108l246 246v-229l191 -189v441q-40 -18 -83.5 -24t-86 1t-82 27t-72.5 53q-42 42 -63.5 95t-21.5 108t21.5 108t63.5 95l279 278l290 -291v-848l84 -81l-186 -187l-143 144l-146 -146zM149 762q0 -44 16.5 -86.5t49.5 -75.5q28 -29 63.5 -45t73.5 -20.5t75.5 3.5 t70.5 29v262l-189 189l-94 -94q-33 -33 -49.5 -75.5t-16.5 -86.5zM215 1348l229 231l230 -231l-82 -82l-148 149l-147 -149z" />
<glyph unicode="&#xe3;" d="M61 125v108l246 246v-229l191 -189v441q-40 -18 -83.5 -24t-86 1t-82 27t-72.5 53q-42 42 -63.5 95t-21.5 108t21.5 108t63.5 95l279 278l290 -291v-848l84 -81l-186 -187l-143 144l-146 -146zM149 762q0 -44 16.5 -86.5t49.5 -75.5q28 -29 63.5 -45t73.5 -20.5t75.5 3.5 t70.5 29v262l-189 189l-94 -94q-33 -33 -49.5 -75.5t-16.5 -86.5zM184 1368l230 229l186 -186l125 125l41 -41l-229 -229l-187 186l-125 -125z" />
<glyph unicode="&#xe4;" d="M61 125v108l246 246v-229l191 -189v441q-40 -18 -83.5 -24t-86 1t-82 27t-72.5 53q-42 42 -63.5 95t-21.5 108t21.5 108t63.5 95l279 278l290 -291v-848l84 -81l-186 -187l-143 144l-146 -146zM149 762q0 -44 16.5 -86.5t49.5 -75.5q28 -29 63.5 -45t73.5 -20.5t75.5 3.5 t70.5 29v262l-189 189l-94 -94q-33 -33 -49.5 -75.5t-16.5 -86.5zM152 1432l145 145l145 -145l-145 -144zM463 1432l145 145l146 -145l-146 -144z" />
<glyph unicode="&#xe5;" d="M61 125v108l246 246v-229l191 -189v441q-40 -18 -83.5 -24t-86 1t-82 27t-72.5 53q-42 42 -63.5 95t-21.5 108t21.5 108t63.5 95l279 278l290 -291v-848l84 -81l-186 -187l-143 144l-146 -146zM149 762q0 -44 16.5 -86.5t49.5 -75.5q28 -29 63.5 -45t73.5 -20.5t75.5 3.5 t70.5 29v262l-189 189l-94 -94q-33 -33 -49.5 -75.5t-16.5 -86.5zM279 1464q0 36 13.5 68t37 55.5t55.5 37t68 13.5t67.5 -13.5t55.5 -37t37.5 -55.5t13.5 -68t-13.5 -67.5t-37.5 -55.5t-55.5 -37.5t-67.5 -13.5t-68 13.5t-55.5 37.5t-37 55.5t-13.5 67.5zM375 1464 q0 -32 23 -55t55 -23t54.5 23t22.5 55t-22.5 55t-54.5 23t-55 -23t-23 -55z" />
<glyph unicode="&#xe6;" horiz-adv-x="1219" d="M61 125v108l246 246v-229l191 -189v441q-40 -18 -83.5 -24t-86 1t-82 27t-72.5 53q-42 42 -63.5 95t-21.5 108t21.5 108t63.5 95l279 278l217 -219l219 219l289 -291l-435 -434v-244l211 -211l183 183l41 -41l-369 -369l-227 227l-230 -229zM149 762q0 -44 16.5 -86.5 t49.5 -75.5q28 -29 63.5 -45t73.5 -20.5t75.5 3.5t70.5 29v262l-189 189l-94 -94q-33 -33 -49.5 -75.5t-16.5 -86.5zM743 600l209 209l-209 207v-416z" />
<glyph unicode="&#xe7;" horiz-adv-x="823" d="M102 147v705l392 391l288 -289l-184 -184l-250 250v-748l209 -209l184 183l41 -41l-327 -328l151 -151l-198 -199l-103 102l158 158z" />
<glyph unicode="&#xe8;" horiz-adv-x="823" d="M102 147v705l392 391l288 -291l-434 -434v-244l211 -211l182 183l41 -41l-368 -369zM348 600l209 209l-209 207v-416zM362 1497l82 82l230 -231l-82 -82z" />
<glyph unicode="&#xe9;" horiz-adv-x="823" d="M102 147v705l392 391l288 -291l-434 -434v-244l211 -211l182 183l41 -41l-368 -369zM242 1348l227 229l82 -82l-227 -229zM348 600l209 209l-209 207v-416z" />
<glyph unicode="&#xea;" horiz-adv-x="823" d="M102 147v705l392 391l288 -291l-434 -434v-244l211 -211l182 183l41 -41l-368 -369zM266 1348l229 231l230 -231l-82 -82l-148 149l-147 -149zM348 600l209 209l-209 207v-416z" />
<glyph unicode="&#xeb;" horiz-adv-x="823" d="M102 147v705l392 391l288 -291l-434 -434v-244l211 -211l182 183l41 -41l-368 -369zM193 1432l145 145l145 -145l-145 -144zM348 600l209 209l-209 207v-416zM504 1432l145 145l146 -145l-146 -144z" />
<glyph unicode="&#xec;" horiz-adv-x="520" d="M41 1057l186 186l166 -166v-971l86 -86l-186 -184l-146 144v970zM117 1497l82 82l230 -231l-82 -82z" />
<glyph unicode="&#xed;" horiz-adv-x="520" d="M41 1057l186 186l166 -166v-971l86 -86l-186 -184l-146 144v970zM100 1348l227 229l82 -82l-227 -229z" />
<glyph unicode="&#xee;" horiz-adv-x="520" d="M11 1348l229 231l230 -231l-82 -82l-148 149l-147 -149zM41 1057l186 186l166 -166v-971l86 -86l-186 -184l-146 144v970z" />
<glyph unicode="&#xef;" horiz-adv-x="520" d="M-72 1432l145 145l145 -145l-145 -144zM41 1057l186 186l166 -166v-971l86 -86l-186 -184l-146 144v970zM239 1432l145 145l146 -145l-146 -144z" />
<glyph unicode="&#xf0;" horiz-adv-x="887" d="M-20 1384l186 187l151 -152l78 78l43 -43l-78 -78l424 -422v-729l-391 -391l-291 289v729l205 205l-133 133l-94 -94l-45 43l96 94zM348 248l191 -187v768l-191 187v-768z" />
<glyph unicode="&#xf1;" horiz-adv-x="934" d="M41 1057l186 186l166 -166l166 166l248 -248v-889l86 -86l-186 -184l-146 144v890l-147 146l-21 -21v-889l86 -86l-186 -184l-146 144v972zM204 1368l230 229l186 -186l125 125l41 -41l-229 -229l-187 186l-125 -125z" />
<glyph unicode="&#xf2;" horiz-adv-x="887" d="M102 123v729l392 391l290 -289v-729l-391 -391zM348 248l191 -187v768l-191 187v-768zM362 1497l82 82l230 -231l-82 -82z" />
<glyph unicode="&#xf3;" horiz-adv-x="887" d="M102 123v729l392 391l290 -289v-729l-391 -391zM242 1348l227 229l82 -82l-227 -229zM348 248l191 -187v768l-191 187v-768z" />
<glyph unicode="&#xf4;" horiz-adv-x="887" d="M102 123v729l392 391l290 -289v-729l-391 -391zM266 1348l229 231l230 -231l-82 -82l-148 149l-147 -149zM348 248l191 -187v768l-191 187v-768z" />
<glyph unicode="&#xf5;" horiz-adv-x="887" d="M102 123v729l392 391l290 -289v-729l-391 -391zM184 1368l230 229l186 -186l125 125l41 -41l-229 -229l-187 186l-125 -125zM348 248l191 -187v768l-191 187v-768z" />
<glyph unicode="&#xf6;" horiz-adv-x="887" d="M102 123v729l392 391l290 -289v-729l-391 -391zM197 1432l145 145l145 -145l-145 -144zM348 248l191 -187v768l-191 187v-768zM508 1432l145 145l146 -145l-146 -144z" />
<glyph unicode="&#xf7;" horiz-adv-x="1141" d="M102 575v195h936v-195h-936zM403 268l166 166l168 -166l-166 -166zM403 1077l166 166l168 -166l-166 -166z" />
<glyph unicode="&#xf8;" horiz-adv-x="887" d="M-102 39l204 205v608l392 391l290 -289v-30l164 163l41 -40l-205 -205v-617l-391 -391l-291 289v39l-163 -164zM348 248l191 -187v535l-191 -188v-160zM348 489l191 189v151l-191 187v-527z" />
<glyph unicode="&#xf9;" horiz-adv-x="934" d="M41 1059l186 184l146 -143v-891l147 -146l21 21v889l-86 86l186 184l145 -143v-973l107 -104l-186 -187l-166 166l-166 -166l-248 248v889zM199 1497l82 82l230 -231l-82 -82z" />
<glyph unicode="&#xfa;" horiz-adv-x="934" d="M41 1059l186 184l146 -143v-891l147 -146l21 21v889l-86 86l186 184l145 -143v-973l107 -104l-186 -187l-166 166l-166 -166l-248 248v889zM385 1348l227 229l82 -82l-227 -229z" />
<glyph unicode="&#xfb;" horiz-adv-x="934" d="M41 1059l186 184l146 -143v-891l147 -146l21 21v889l-86 86l186 184l145 -143v-973l107 -104l-186 -187l-166 166l-166 -166l-248 248v889zM215 1348l229 231l230 -231l-82 -82l-148 149l-147 -149z" />
<glyph unicode="&#xfc;" horiz-adv-x="934" d="M41 1059l186 184l146 -143v-891l147 -146l21 21v889l-86 86l186 184l145 -143v-973l107 -104l-186 -187l-166 166l-166 -166l-248 248v889zM152 1432l145 145l145 -145l-145 -144zM463 1432l145 145l146 -145l-146 -144z" />
<glyph unicode="&#xfd;" horiz-adv-x="911" d="M41 1057l186 186l146 -145v-561l190 -189v625l-86 84l187 186l145 -145v-1200l-332 -328l-246 246q-42 42 -63 95t-21 107.5t21 107.5t63 95q11 11 23 20.5t25 18.5l-152 150v563zM205 18.5q0 -44.5 16.5 -86.5t50.5 -75l82 -80l209 207v241l-125 -125l-116 117 q-27 -14 -50 -37q-33 -33 -50 -75t-17 -86.5zM385 1348l227 229l82 -82l-227 -229z" />
<glyph unicode="&#xfe;" horiz-adv-x="909" d="M41 1452l186 186l166 -165v-396l166 166l248 -248v-708l-371 -371h-43v-76l86 -86l-186 -184l-146 143v1635zM393 123h168v747l-147 146l-21 -21v-872z" />
<glyph unicode="&#xff;" horiz-adv-x="911" d="M41 1057l186 186l146 -145v-561l190 -189v625l-86 84l187 186l145 -145v-1200l-332 -328l-246 246q-42 42 -63 95t-21 107.5t21 107.5t63 95q11 11 23 20.5t25 18.5l-152 150v563zM152 1432l145 145l145 -145l-145 -144zM205 18.5q0 -44.5 16.5 -86.5t50.5 -75l82 -80 l209 207v241l-125 -125l-116 117q-27 -14 -50 -37q-33 -33 -50 -75t-17 -86.5zM463 1432l145 145l146 -145l-146 -144z" />
<glyph unicode="&#x152;" horiz-adv-x="1528" d="M102 184v1022l453 453l281 -279l280 279l350 -350l-206 -207l-310 309l-43 -43v-508h520l-266 -266h-254v-406h393l146 -145l-207 -207l-86 86h-610l-88 -88zM369 1391l2 -1059l250 -250l20 20v1061l-250 250z" />
<glyph unicode="&#x153;" horiz-adv-x="1260" d="M102 123v729l392 391l219 -217l217 217l289 -291l-435 -434v-244l211 -211l183 183l41 -41l-369 -369l-227 227l-230 -229zM348 248l191 -187v768l-191 187v-768zM784 600l209 209l-209 207v-416z" />
<glyph unicode="&#x178;" horiz-adv-x="1010" d="M37 1452l207 207l145 -146v-829l232 -229l20 20v893l-86 84l207 207l145 -146v-1554l-393 -389l-287 287q-50 50 -75 112.5t-25 127t25 127t75 112.5q13 12 26.5 23t27.5 20l-158 158v831zM186 96q0 -54 20.5 -106t61.5 -92l103 -101l270 269v327l-186 -186l-131 131 q-16 -9 -29.5 -20t-26.5 -23q-41 -41 -61.5 -93t-20.5 -106zM211 1801l145 145l145 -145l-145 -144zM522 1801l145 145l146 -145l-146 -144z" />
<glyph unicode="&#x2c6;" d="M215 1348l229 231l230 -231l-82 -82l-148 149l-147 -149z" />
<glyph unicode="&#x2dc;" horiz-adv-x="971" d="M184 1368l230 229l186 -186l125 125l41 -41l-229 -229l-187 186l-125 -125z" />
<glyph unicode="&#x2000;" horiz-adv-x="995" />
<glyph unicode="&#x2001;" horiz-adv-x="1991" />
<glyph unicode="&#x2002;" horiz-adv-x="995" />
<glyph unicode="&#x2003;" horiz-adv-x="1991" />
<glyph unicode="&#x2004;" horiz-adv-x="663" />
<glyph unicode="&#x2005;" horiz-adv-x="497" />
<glyph unicode="&#x2006;" horiz-adv-x="331" />
<glyph unicode="&#x2007;" horiz-adv-x="331" />
<glyph unicode="&#x2008;" horiz-adv-x="248" />
<glyph unicode="&#x2009;" horiz-adv-x="398" />
<glyph unicode="&#x200a;" horiz-adv-x="110" />
<glyph unicode="&#x2010;" horiz-adv-x="711" d="M102 725v195h506v-195h-506z" />
<glyph unicode="&#x2011;" horiz-adv-x="711" d="M102 725v195h506v-195h-506z" />
<glyph unicode="&#x2012;" horiz-adv-x="711" d="M102 725v195h506v-195h-506z" />
<glyph unicode="&#x2013;" horiz-adv-x="1184" d="M102 725v195h979v-195h-979z" />
<glyph unicode="&#x2014;" horiz-adv-x="1663" d="M102 725v195h1459v-195h-1459z" />
<glyph unicode="&#x2018;" horiz-adv-x="502" d="M82 1300q0 71 26 132.5t72 107.5t107.5 72t132.5 26v-57q-60 0 -112.5 -23t-90.5 -63l197 -195l-166 -165z" />
<glyph unicode="&#x2019;" horiz-adv-x="502" d="M82 1135v57q60 0 111 23t90 63l-195 195l166 165l166 -165q0 -71 -26.5 -132.5t-72 -107.5t-107.5 -72t-132 -26z" />
<glyph unicode="&#x201a;" horiz-adv-x="496" d="M76 -281q59 0 110.5 23t89.5 63l-194 195l166 166l166 -166q0 -71 -26.5 -132.5t-72.5 -107t-107.5 -72t-131.5 -26.5v57z" />
<glyph unicode="&#x201c;" horiz-adv-x="895" d="M82 1300q0 71 26 132.5t72 107.5t107.5 72t132.5 26v-57q-60 0 -112.5 -23t-90.5 -63l197 -195l-166 -165zM475 1300q0 71 26.5 132.5t72 107.5t107 72t132.5 26v-57q-60 0 -112 -23t-91 -63l197 -195l-166 -165z" />
<glyph unicode="&#x201d;" horiz-adv-x="895" d="M82 1135v57q60 0 112 23t91 63l-197 195l166 165l166 -165q0 -71 -26.5 -132.5t-72 -107.5t-107.5 -72t-132 -26zM475 1135v57q60 0 112.5 23t90.5 63l-197 195l166 165l166 -165q0 -71 -26 -132.5t-72 -107.5t-107.5 -72t-132.5 -26z" />
<glyph unicode="&#x201e;" horiz-adv-x="895" d="M82 -281q60 0 112 23t91 63l-197 195l166 166l166 -166q0 -71 -26.5 -132.5t-72 -107t-107.5 -72t-132 -26.5v57zM475 -281q60 0 112.5 23t90.5 63l-197 195l166 166l166 -166q0 -71 -26 -132.5t-72 -107t-107.5 -72t-132.5 -26.5v57z" />
<glyph unicode="&#x2022;" horiz-adv-x="864" d="M102 729q0 68 26 128t71 105t105 71t128 26t128 -26t105 -71t71 -105t26 -128t-26 -128t-71 -105t-105 -71t-128 -26t-128 26t-105 71t-71 105t-26 128z" />
<glyph unicode="&#x2026;" horiz-adv-x="1323" d="M82 0l166 166l166 -166l-166 -166zM496 0l166 166l165 -166l-165 -166zM909 0l166 166l166 -166l-166 -166z" />
<glyph unicode="&#x202f;" horiz-adv-x="398" />
<glyph unicode="&#x2039;" horiz-adv-x="750" d="M123 586l457 456l47 -47l-267 -409l267 -410l-47 -47z" />
<glyph unicode="&#x203a;" horiz-adv-x="750" d="M123 176l266 410l-266 409l47 47l457 -456l-457 -457z" />
<glyph unicode="&#x205f;" horiz-adv-x="497" />
<glyph unicode="&#x20ac;" horiz-adv-x="969" d="M-51 481l153 154v143h-153l153 154v252l476 475l350 -350l-207 -207l-309 309l-43 -43v-436h456l-153 -154h-303v-143h252l-154 -154h-98v-145l252 -252l266 266l41 -41l-473 -473l-353 352v293h-153z" />
<glyph unicode="&#x2122;" horiz-adv-x="2296" d="M0 1327l270 268h518l84 84l41 -41l-249 -247h-519l-104 -105zM313 696v480l205 204v-598l86 -86l-145 -143zM807 1452l145 145l185 -182l223 223l250 -247l248 247l290 -288v-568l86 -84l-145 -145l-145 145v568l-191 186l-102 -102v-566l86 -84l-146 -145l-145 145v566 l-191 186l-102 -102v-568l86 -84l-145 -145l-146 145v615z" />
<glyph unicode="&#x25fc;" horiz-adv-x="1245" d="M0 0v1245h1245v-1245h-1245z" />
<glyph unicode="&#xfb01;" horiz-adv-x="1143" d="M-20 1018l204 205v190l494 494l395 -396l-186 -184l-355 352l-102 -102v-354h266l-204 -205h-62v-912l86 -86l-186 -184l-146 144v1038h-204zM664 1057l186 186l166 -166v-971l86 -86l-187 -184l-145 144v970z" />
<glyph unicode="&#xfb02;" horiz-adv-x="1143" d="M-20 1018l204 205v190l494 494l330 -330v-1471l86 -86l-187 -184l-145 144v1472l-230 227l-102 -102v-354h266l-204 -205h-62v-912l86 -86l-186 -184l-146 144v1038h-204z" />
</font>
</defs>
</svg>
